O Despertar da Besta - Il risveglio della bestia

Original release link:
 
http://forum.tntvillage.scambioetico.org/tntforum/index.php?showtopic=252736

.: INFO :.

Directed by 	José Mojica Marins
Produced by 	Giorgio Attili
José Mojica Marins
George Michel Serkeis
Written by 	Rubens F. Lucchetti
Starring 	José Mojica Marins
Cinematography 	Giorgio Attili
Editing by 	Luiz Elias
Running time 	93 minutes
Country 	 Brazil
Language 	Portuguese

.: CAST :.

    Andréa Bryan
    Annik Malvil
    Graveto
    Ítala Nandi
    José Mojica Marins as Coffin Joe
    Lurdes Vanucchi Ribas
    Mário Lima as Volunteer
    Ozualdo Candeias as Volunteer
    Roney Wanderney

.: STORYLINE :.

In the film's first portion, filmed in B&W, Dr. Sergio, a psychiatrist, appears on a television program on a panel with three other contemporary psychiatrists after he claims to have conducted experiments on four volunteer drug addicts with LSD in order to investigate his claim that sexual perversion is caused by use of illegal drugs. As evidence, he presents a series documented accounts of drug use leading to lewd and bizarre sexual acts. Marins appears (as himself) on the panel with the psychiatrists as some type of expert on the subject of depravity. During the program, Dr. Sergio recounts the experiment to his colleagues on the panel, who argue with his claims.

Dr. Sergio gathers the four volunteers, and after receiving an injection, the volunteers (four drug users seen in the previous segments) are instructed to stare at a movie poster of Marins' The Strange World of Coffin Joe. The film changes to color and each patient's experience is vividly portrayed in a series of surreal scenes.

.: SPECIFICS :.

	General

Format : AVI
Format/Info : Audio Video Interleave
File size : 798 MiB
Duration : 1h 33mn
Overall bit rate : 1 199 Kbps
Writing application : VirtualDubMod 1.5.10.1 (build 2366/release)
Writing library : VirtualDubMod build 2366/release

Video

ID : 0
Format : MPEG-4 Visual
Format settings, BVOP : 1
Format settings, QPel : No
Format settings, GMC : No warppoints
Format settings, Matrix : Default (H.263)
Muxing mode : Packed bitstream
Codec ID : DX50
Codec ID/Hint : DivX 5
Duration : 1h 33mn
Bit rate : 1 061 Kbps
Width : 544 pixels
Height : 400 pixels
Display aspect ratio : 4:3
Frame rate : 25.000 fps
Color space : YUV
Chroma subsampling : 4:2:0
Bit depth : 8 bits
Scan type : Progressive
Compression mode : Lossy
Bits/(Pixel*Frame) : 0.195
Stream size : 706 MiB (89%)
Writing library : DivX 5.2.1 Alpha (UTC 2004-09-08)

Audio

ID : 1
Format : MPEG Audio
Format version : Version 1
Format profile : Layer 3
Mode : Joint stereo
Codec ID : 55
Codec ID/Hint : MP3
Duration : 1h 33mn
Bit rate mode : Constant
Bit rate : 128 Kbps
Channel(s) : 2 channels
Sampling rate : 48.0 KHz
Compression mode : Lossy
Stream size : 85.2 MiB (11%)
Alignment : Aligned on interleaves
Interleave, duration : 40 ms (1.00 video frame)
Interleave, preload duration : 504 ms